<svg version="1.1" id="Layer_1" xmlns="http://www.w3.org/2000/svg" x="0" y="0" viewBox="0 0 1060.52 433.34" style="enable-background:new 0 0 1060.52 433.34" xml:space="preserve"><style>.st0{fill:#c8102e}</style><path class="st0" d="M191.08 0C85.72 0 0 85.72 0 191.09c0 99.82 77.36 183.02 176.56 190.52l14.09 51.73 14.31-51.68c99.57-7.18 177.21-90.41 177.21-190.57C382.17 85.72 296.45 0 191.08 0zm164.03 191.09c0 41.08-15.32 80.42-43.15 110.75-26.59 28.99-62.3 47.36-101 52.06 17.67-90.34 60.75-173.09 124.85-239.86a163.68 163.68 0 0 1 19.3 77.05zM320.74 90.72c-63.17 64.19-107.89 143.19-129.97 229.41-22.04-86.04-66.63-164.9-129.62-229.03 14.73-19.09 33.71-34.93 55.07-45.94 23.32-12.02 48.51-18.11 74.87-18.11 26.28 0 51.4 6.06 74.67 18 21.29 10.94 40.25 26.7 54.98 45.67zM170.55 353.84C132 349 96.45 330.57 70 301.63c-27.69-30.31-42.94-69.56-42.94-110.54 0-26.68 6.58-53.07 19.07-76.61 63.86 66.67 106.79 149.23 124.42 239.36z"/><path class="st0" d="m324.67 192.25-2.19 1.61c-25.1 18.46-44.11 43.54-54.98 72.54l-.95 2.55 2.71.15c1.07.06 2.14.09 3.2.09 27.23 0 50.7-19.62 55.32-46.78 1.57-9.25.8-18.79-2.22-27.58l-.89-2.58zM109.72 269.19c1.06 0 2.13-.03 3.2-.09l2.71-.15-.95-2.55c-10.88-29.01-29.89-54.1-54.98-72.54l-2.19-1.61-.88 2.58a56.158 56.158 0 0 0-2.23 27.58c4.61 27.16 28.09 46.78 55.32 46.78z"/><g><path d="M634.76 171.68h-69.19v-60.66h-29.11v154.29h29.11V198.2h69.19v67.11h29.11V111.02h-29.11zM709.41 111.02h29.1v154.29h-29.1zM878.91 207.53c0 3.62-.57 7.47-1.68 11.45-1.11 3.95-2.97 7.63-5.53 10.95-2.55 3.31-5.98 6.07-10.2 8.21-4.21 2.14-9.52 3.23-15.79 3.23s-11.58-1.08-15.79-3.23c-4.22-2.14-7.65-4.91-10.2-8.21-2.56-3.33-4.42-7.01-5.53-10.95-1.12-3.97-1.68-7.83-1.68-11.45v-96.51h-29.1v97.37c0 9.27 1.58 17.76 4.7 25.23 3.12 7.48 7.54 13.93 13.14 19.17 5.59 5.23 12.25 9.31 19.8 12.14 7.53 2.83 15.83 4.26 24.66 4.26s17.12-1.43 24.66-4.26c7.54-2.83 14.17-6.92 19.7-12.15 5.52-5.23 9.95-11.68 13.14-19.16 3.19-7.48 4.81-15.97 4.81-25.24v-97.37h-29.1v96.52h-.01zM938.06 111.02v26.52h46.68v127.77h29.1V137.54h46.68v-26.52z"/></g></svg>