<?xml version="1.0" encoding="UTF-8"?>
<svg width="57px" height="58px" viewBox="0 0 57 58" version="1.1" xmlns="http://www.w3.org/2000/svg" xmlns:xlink="http://www.w3.org/1999/xlink">
    <!-- Generator: Sketch 42 (36781) - http://www.bohemiancoding.com/sketch -->
    <title>Group 2</title>
    <desc>Created with Sketch.</desc>
    <defs></defs>
    <g id="Page-1" stroke="none" stroke-width="1" fill="none" fill-rule="evenodd">
        <g id="Group-2" transform="translate(29.317280, 29.317280) rotate(-45.000000) translate(-29.317280, -29.317280) translate(-28.182720, -28.182720)" fill="#000000">
            <g id="Group" transform="translate(57.275649, 57.275649) rotate(-315.000000) translate(-57.275649, -57.275649) translate(4.775649, 28.775649)">
                <path d="M14.2842712,42.2842712 L14.2842712,8.28427125 L8.28427125,8.28427125 L8.28427125,45.2842712 L8.28427125,48.2842712 L48.2842712,48.2842712 L48.2842712,42.2842712 L14.2842712,42.2842712 Z" id="Combined-Shape" transform="translate(28.284271, 28.284271) rotate(-135.000000) translate(-28.284271, -28.284271) "></path>
                <path d="M62.2842712,42.2842712 L62.2842712,8.28427125 L56.2842712,8.28427125 L56.2842712,45.2842712 L56.2842712,48.2842712 L96.2842712,48.2842712 L96.2842712,42.2842712 L62.2842712,42.2842712 Z" id="Combined-Shape" transform="translate(76.284271, 28.284271) scale(-1, 1) rotate(-135.000000) translate(-76.284271, -28.284271) "></path>
            </g>
        </g>
    </g>
</svg>