<?xml version="1.0" encoding="UTF-8"?>
<svg width="170px" height="24px" viewBox="0 0 170 24" version="1.1" xmlns="http://www.w3.org/2000/svg" xmlns:xlink="http://www.w3.org/1999/xlink">
    <title>HiutDenimCo_LogoLockUp_SingleLine_RGB</title>
    <g id="Page-1" stroke="none" stroke-width="1" fill="none" fill-rule="evenodd">
        <g id="Desktop-HD" transform="translate(-20.000000, -23.000000)" fill-rule="nonzero">
            <g id="HiutDenimCo_LogoLockUp_SingleLine_RGB" transform="translate(20.000000, 23.000000)">
                <g id="Group" fill="#C8102E">
                    <path d="M10.9966539,0 C4.93133923,0 0,4.80226522 0,10.7088249 C0,16.3265691 4.49519484,21.0099103 10.2406703,21.3893346 L10.9675776,24 L11.7119307,21.3949976 C17.4806671,21.0325625 21.9874976,16.3492213 21.9874976,10.7088249 C21.9933077,4.80226522 17.0561532,0 10.9966539,0 Z M20.649983,10.7088249 C20.649983,13.0646531 19.7486179,15.3185465 18.108715,17.0571024 C16.5095189,18.756017 14.3462428,19.8206701 12.0085088,20.0585182 C13.0319943,14.8145352 15.5965234,10.0066069 19.4404092,6.15573384 C20.2312844,7.54318075 20.649983,9.11750826 20.649983,10.7088249 Z M18.6902409,5.03445021 C14.8812466,8.77772534 12.2236734,13.4214252 10.9792081,18.4898537 C9.74055802,13.4327513 7.08298488,8.79471449 3.28562106,5.05710241 C4.1637251,3.93015573 5.30351577,2.99008966 6.5886879,2.34450212 C7.96108892,1.65361019 9.44397984,1.30816423 10.9966539,1.30816423 C12.5435126,1.30816423 14.0205883,1.65361019 15.3929893,2.33883908 C16.6723462,2.97876357 17.8121368,3.91316659 18.6902409,5.03445021 Z M9.94409207,20.0528551 C7.61798866,19.809344 5.46052775,18.7446909 3.86714692,17.0457763 C2.23887453,15.3072204 1.33750946,13.0589901 1.33750946,10.7088249 C1.33750946,9.12883436 1.75039281,7.56583294 2.53545272,6.17838603 C6.36770808,10.0292591 8.92642183,14.8201982 9.94409207,20.0528551 Z" id="Shape"></path>
                    <path d="M18.7483935,10.8220859 L18.6553493,10.8900425 C17.2015347,11.9320434 16.0966356,13.3478056 15.4685877,14.9844266 L15.4278809,15.0920245 L15.544186,15.0976876 C15.6081539,15.1033506 15.6663065,15.1033506 15.7302743,15.1033506 C17.3003941,15.1033506 18.6495341,14.0047192 18.917036,12.4756961 C19.0100801,11.9546956 18.963558,11.422369 18.7891003,10.9296838 L18.7483935,10.8220859 Z" id="Path"></path>
                    <path d="M6.26303343,15.1033506 C6.32700127,15.1033506 6.38515386,15.1033506 6.4491217,15.0976876 L6.56542687,15.0920245 L6.52472006,14.9844266 C5.89667214,13.3478056 4.79177302,11.9320434 3.33795839,10.8900425 L3.239099,10.8220859 L3.19839219,10.9296838 C3.02393443,11.4280321 2.97741236,11.9603587 3.0704565,12.4756961 C3.34377365,13.9990562 4.69291363,15.1033506 6.26303343,15.1033506 Z" id="Path"></path>
                </g>
                <g id="Group-2" transform="translate(30.655738, 5.538462)" fill="#000000">
                    <g id="Group" transform="translate(0.000000, 0.284554)">
                        <polygon id="Path" points="0 1.41208312e-14 2.01132018 1.41208312e-14 2.01132018 4.54417292 7.30109227 4.54417292 7.30109227 1.41208312e-14 9.31241245 1.41208312e-14 9.31241245 11.4010053 7.30109227 11.4010053 7.30109227 6.38009992 2.01132018 6.38009992 2.01132018 11.4010053 0 11.4010053"></polygon>
                        <polygon id="Path" points="12.8322228 1.41208312e-14 14.843543 1.41208312e-14 14.843543 11.4010053 12.8322228 11.4010053"></polygon>
                        <path d="M27.4243507,7.2219891 C27.4243507,7.91172963 27.3036715,8.53046746 27.0723697,9.07820259 C26.8410678,9.62593772 26.5192566,10.1026701 26.1169926,10.4881134 C25.7147285,10.8735566 25.2320117,11.1778539 24.6788986,11.3807188 C24.1257856,11.5835836 23.5223895,11.6951593 22.8787671,11.6951593 C22.225088,11.6951593 21.6317486,11.5937269 21.0786355,11.3807188 C20.5255225,11.1677107 20.0428056,10.8735566 19.630485,10.4881134 C19.2181644,10.1026701 18.9064097,9.63608096 18.6751079,9.07820259 C18.4438061,8.52032422 18.3331835,7.90158639 18.3331835,7.2219891 L18.3331835,0.0101432431 L20.3445037,0.0101432431 L20.3445037,7.16112964 C20.3445037,7.44514045 20.3847301,7.72915126 20.4752395,8.03344855 C20.5556923,8.33774585 20.6964847,8.62175665 20.8976167,8.87533773 C21.0987487,9.12891881 21.3602203,9.34192691 21.6820316,9.51436205 C22.0038428,9.68679718 22.4061068,9.76794313 22.8888237,9.76794313 C23.3715405,9.76794313 23.7738046,9.68679718 24.0956158,9.51436205 C24.417427,9.34192691 24.6788986,9.13906205 24.8800307,8.87533773 C25.0811627,8.62175665 25.2219551,8.33774585 25.3024079,8.03344855 C25.3828607,7.72915126 25.4331437,7.43499721 25.4331437,7.1509864 L25.4331437,0 L27.4444639,0 L27.4243507,7.2219891 L27.4243507,7.2219891 Z" id="Path"></path>
                        <polygon id="Path" points="33.2772924 1.835927 29.8077651 1.835927 29.8077651 1.41208312e-14 38.7480833 1.41208312e-14 38.7480833 1.835927 35.2886126 1.835927 35.2886126 11.4010053 33.2772924 11.4010053"></polygon>
                    </g>
                    <g id="Group" transform="translate(46.793364, 0.284554)">
                        <path d="M0,0 L4.45507421,0 C5.19926267,0 5.91328134,0.111575674 6.6071868,0.344870266 C7.30109227,0.578164858 7.91454492,0.923035124 8.44754477,1.39976755 C8.98054462,1.87649998 9.40292186,2.46480808 9.72473309,3.1748351 C10.0465443,3.88486212 10.2074499,4.72675129 10.2074499,5.70050263 C10.2074499,6.67425397 10.0264311,7.5262864 9.65433688,8.23631341 C9.28224265,8.94634043 8.8095824,9.54479178 8.23635615,10.011381 C7.6530733,10.4779701 7.00945084,10.8228404 6.30548877,11.056135 C5.60152671,11.2894296 4.89756465,11.4010053 4.22377238,11.4010053 L0.0100566009,11.4010053 L0,0 L0,0 Z M3.51981032,9.56507826 C4.14331958,9.56507826 4.74671563,9.49407556 5.29982868,9.35207016 C5.86299833,9.21006475 6.34571518,8.98691341 6.75803582,8.67247287 C7.17035645,8.35803233 7.50222428,7.97258909 7.74358271,7.47557018 C7.98494113,6.98869451 8.10562034,6.39024317 8.10562034,5.70050263 C8.10562034,5.0107621 7.99499773,4.422454 7.78380911,3.92543509 C7.57262049,3.42841617 7.27092246,3.03282969 6.89882823,2.7285324 C6.51667739,2.42423511 6.07418695,2.20108376 5.56130031,2.04893511 C5.04841366,1.90692971 4.47518741,1.835927 3.86173475,1.835927 L2.02137678,1.835927 L2.02137678,9.56507826 L3.51981032,9.56507826 L3.51981032,9.56507826 L3.51981032,9.56507826 Z" id="Shape"></path>
                        <polygon id="Path" points="13.1741472 0 20.6663149 0 20.6663149 1.835927 15.1854674 1.835927 15.1854674 4.63546211 20.3746735 4.63546211 20.3746735 6.47138911 15.1854674 6.47138911 15.1854674 9.56507826 20.9478997 9.56507826 20.9478997 11.4010053 13.1741472 11.4010053"></polygon>
                        <polygon id="Path" points="23.9849932 0 26.6499924 0 32.1308399 8.46960801 32.1610097 8.46960801 32.1610097 0 34.1723299 0 34.1723299 11.4010053 31.6179533 11.4010053 26.0264832 2.6575297 25.9963134 2.6575297 25.9963134 11.4010053 23.9849932 11.4010053"></polygon>
                        <polygon id="Path" points="37.7021968 0 39.713517 0 39.713517 11.4010053 37.7021968 11.4010053"></polygon>
                        <polygon id="Path" points="43.2936669 0 46.3609302 0 49.3779105 7.99287558 52.4250606 0 55.4621541 0 55.4621541 11.4010053 53.5413433 11.4010053 53.5413433 1.92721619 53.5111735 1.92721619 50.0818726 11.4010053 48.6739484 11.4010053 45.2446475 1.92721619 45.2144777 1.92721619 45.2144777 11.4010053 43.3037235 11.4010053 43.3037235 0"></polygon>
                    </g>
                    <g id="Group" transform="translate(110.009157, 0.000000)">
                        <path d="M8.36709196,2.96237038 C7.95477132,2.50592444 7.55250729,2.21177039 7.16029985,2.05962174 C6.76809242,1.90747309 6.37588498,1.83647039 5.98367755,1.83647039 C5.40039469,1.83647039 4.86739484,1.93790282 4.3947346,2.15091093 C3.92207436,2.36391904 3.50975372,2.64792984 3.16782929,3.02322984 C2.82590486,3.39852983 2.56443323,3.82454604 2.37335782,4.32156496 C2.1822824,4.81858387 2.09177299,5.34603251 2.09177299,5.91405413 C2.09177299,6.52264871 2.1822824,7.09067033 2.37335782,7.60797573 C2.55437663,8.12528113 2.82590486,8.57158383 3.16782929,8.94688382 C3.50975372,9.32218382 3.91201776,9.61633787 4.3947346,9.82934597 C4.86739484,10.0423541 5.40039469,10.1539298 5.98367755,10.1539298 C6.44628119,10.1539298 6.88877163,10.0423541 7.32120547,9.82934597 C7.75363931,9.61633787 8.15590334,9.26132436 8.52799758,8.77444869 L10.1873367,9.97135138 C9.67445008,10.6813784 9.05094082,11.1986838 8.31680896,11.5131243 C7.58267709,11.8377081 6.79826222,12 5.97362094,12 C5.09869666,12 4.29416859,11.8579946 3.57009333,11.5739838 C2.84601806,11.289973 2.2124522,10.8842433 1.68950895,10.3669379 C1.16656571,9.84963246 0.754245069,9.22075138 0.452547041,8.49043788 C0.150849014,7.76012438 0,6.94866493 0,6.05605953 C0,5.14316765 0.150849014,4.31142171 0.452547041,3.57096497 C0.754245069,2.82036498 1.16656571,2.1914839 1.68950895,1.66403526 C2.2124522,1.13658662 2.84601806,0.730856893 3.57009333,0.446846085 C4.29416859,0.162835278 5.09869666,0.0208298743 5.97362094,0.0208298743 C6.73792261,0.0208298743 7.45194128,0.162835278 8.10562034,0.426559599 C8.7592994,0.700427163 9.37275205,1.16701635 9.93592171,1.81618391 L8.36709196,2.96237038 Z" id="Path"></path>
                        <path d="M11.9975249,6.03577304 C11.9975249,5.12288116 12.1483739,4.29113523 12.4400153,3.55067848 C12.7417134,2.80007849 13.154034,2.17119742 13.6769772,1.64374877 C14.1999205,1.11630013 14.8334864,0.710570406 15.5575616,0.426559599 C16.2816369,0.142548792 17.086165,0.000543388024 17.9610892,0.000543388024 C18.8460701,-0.0095998551 19.6505982,0.122262305 20.3847301,0.39612987 C21.1188619,0.669997434 21.7524278,1.06558392 22.2854276,1.59303256 C22.8184275,2.1204812 23.2307481,2.74936227 23.5324461,3.48981902 C23.8341442,4.23027577 23.9749366,5.06202171 23.9749366,5.97491359 C23.9749366,6.86751898 23.8240876,7.67897843 23.5324461,8.40929194 C23.2307481,9.13960544 22.8184275,9.76848651 22.2854276,10.2959352 C21.7524278,10.8233838 21.1188619,11.2291135 20.3847301,11.5232676 C19.6505982,11.8174216 18.8460701,11.9695703 17.9610892,11.9797135 C17.086165,11.9797135 16.2816369,11.8377081 15.5575616,11.5536973 C14.8334864,11.2696865 14.1999205,10.8639568 13.6769772,10.3466514 C13.154034,9.82934597 12.7417134,9.2004649 12.4400153,8.47015139 C12.1483739,7.73983789 11.9975249,6.92837844 11.9975249,6.03577304 Z M14.0993545,5.90391088 C14.0993545,6.51250547 14.1898639,7.08052709 14.3809393,7.59783249 C14.5619581,8.11513788 14.8334864,8.56144058 15.1754108,8.93674058 C15.5173352,9.31204057 15.9195993,9.60619462 16.4023161,9.81920273 C16.8749763,10.0322108 17.4079762,10.1437865 17.991259,10.1437865 C18.5745419,10.1437865 19.1075417,10.0322108 19.5902586,9.81920273 C20.0729754,9.60619462 20.4752395,9.31204057 20.8171639,8.93674058 C21.1590883,8.56144058 21.42056,8.11513788 21.6116354,7.59783249 C21.8027108,7.08052709 21.8932202,6.52264871 21.8932202,5.90391088 C21.8932202,5.33588927 21.8027108,4.79829738 21.6116354,4.31142171 C21.4306166,3.8144028 21.1590883,3.38838659 20.8171639,3.01308659 C20.4752395,2.6377866 20.0629188,2.35377579 19.5902586,2.14076769 C19.1075417,1.92775958 18.5745419,1.82632715 17.991259,1.82632715 C17.4079762,1.82632715 16.8749763,1.92775958 16.4023161,2.14076769 C15.9296559,2.35377579 15.5173352,2.6377866 15.1754108,3.01308659 C14.8334864,3.38838659 14.5720147,3.8144028 14.3809393,4.31142171 C14.1999205,4.80844063 14.0993545,5.33588927 14.0993545,5.90391088 Z" id="Shape"></path>
                        <path d="M26.7807282,10.5596595 C26.7807282,10.2147892 26.9014075,9.92063516 27.1528225,9.67719733 C27.4042375,9.43375949 27.7059355,9.31204057 28.0579166,9.31204057 C28.399841,9.31204057 28.6914824,9.43375949 28.952954,9.66705408 C29.2043691,9.90034867 29.3351049,10.1945027 29.3351049,10.539373 C29.3351049,10.8842433 29.2144257,11.1783973 28.9630106,11.4218351 C28.7115956,11.665273 28.4098976,11.7869919 28.0579166,11.7869919 C27.8869543,11.7869919 27.7260487,11.7565622 27.5751997,11.6855595 C27.4243507,11.6247 27.2835583,11.5334108 27.1729357,11.4319784 C27.0522565,11.3204027 26.9617471,11.1986838 26.8913508,11.0465351 C26.810898,10.8943865 26.7807282,10.7320946 26.7807282,10.5596595 Z" id="Path"></path>
                    </g>
                </g>
            </g>
        </g>
    </g>
</svg>